Coordinates
version=1
nRows=7
nColumns=40
inDegrees=yes

Units are S.I. units (second, meters, Newtons, ...)
If the header above contains a line with 'inDegrees', this indicates whether rotational values are in degrees (yes) or radians (no).

endheader
time	pelvis_tilt	pelvis_list	pelvis_rotation	pelvis_tx	pelvis_ty	pelvis_tz	hip_flexion_r	hip_adduction_r	hip_rotation_r	knee_angle_r	knee_angle_r_beta	ankle_angle_r	subtalar_angle_r	mtp_angle_r	hip_flexion_l	hip_adduction_l	hip_rotation_l	knee_angle_l	knee_angle_l_beta	ankle_angle_l	subtalar_angle_l	mtp_angle_l	lumbar_extension	lumbar_bending	lumbar_rotation	arm_flex_r	arm_add_r	arm_rot_r	elbow_flex_r	pro_sup_r	wrist_flex_r	wrist_dev_r	arm_flex_l	arm_add_l	arm_rot_l	elbow_flex_l	pro_sup_l	wrist_flex_l	wrist_dev_l
      3.12500000	    -19.71441738	      3.78680056	      1.54005179	     -0.40216673	      0.77524617	     -0.78702687	     64.24457184	     -2.31276615	     -9.66387787	     75.05486553	      1.30995452	     20.48431103	      0.00000000	      0.00000000	     38.34185846	    -16.62384757	      6.18865127	     92.55285447	      1.61535204	    -17.87281653	      0.00000000	      0.00000000	     -8.34065422	    -23.70787315	    -19.00451968	     72.50601580	    -11.70710359	      9.26307326	     60.33408693	     87.43552950	      0.00000000	      0.00000000	     89.95947080	      8.27607798	     34.23918146	     41.05875085	     58.80458368	      0.00000000	      0.00000000
      3.13000000	    -19.73959413	      3.77876373	      1.50720047	     -0.40220909	      0.77428715	     -0.78699495	     64.37268955	     -2.27518140	     -9.64533633	     75.23802566	      1.31315127	     20.59421732	      0.00000000	      0.00000000	     38.31747444	    -16.69559606	      6.21744512	     92.59185502	      1.61603273	    -17.85179492	      0.00000000	      0.00000000	     -8.32302580	    -23.69797067	    -18.97092814	     72.53093430	    -11.72660359	      9.29010865	     60.32143098	     87.43048747	      0.00000000	      0.00000000	     89.95951044	      8.29204852	     34.24253100	     41.07181710	     58.07941785	      0.00000000	      0.00000000
      3.13500000	    -19.75963296	      3.79884153	      1.49294961	     -0.40222866	      0.77329393	     -0.78702847	     64.52391374	     -2.28863905	     -9.62587658	     75.47658476	      1.31731491	     20.66794728	      0.00000000	      0.00000000	     38.26129473	    -16.71463211	      6.23855194	     92.61963886	      1.61651765	    -17.85373543	      0.00000000	      0.00000000	     -8.32837702	    -23.72229475	    -18.94489928	     72.55970818	    -11.78024857	      9.28024487	     60.31817547	     87.44544585	      0.00000000	      0.00000000	     89.95948667	      8.36441278	     34.14358430	     41.08424237	     57.78550382	      0.00000000	      0.00000000
      3.14000000	    -19.74738210	      3.80072011	      1.42142454	     -0.40222948	      0.77240807	     -0.78701118	     64.61679755	     -2.22970222	     -9.58300263	     75.66535137	      1.32060951	     20.77362246	      0.00000000	      0.00000000	     38.17138270	    -16.81878109	      6.17594485	     92.66085136	      1.61723694	    -17.85925076	      0.00000000	      0.00000000	     -8.33994301	    -23.64918070	    -18.88618640	     72.63589066	    -11.77943756	      9.35761568	     60.33310694	     87.43710438	      0.00000000	      0.00000000	     89.95955333	      8.27661056	     33.66628610	     40.81646062	     69.56352439	      0.00000000	      0.00000000
      3.14500000	    -19.81292163	      3.73546836	      1.44558684	     -0.40234303	      0.77141344	     -0.78696595	     64.77734306	     -2.18664821	     -9.61480243	     75.83224306	      1.32352232	     20.87117902	      0.00000000	      0.00000000	     38.24805630	    -16.90902972	      6.27568879	     92.71890338	      1.61825014	    -17.87832007	      0.00000000	      0.00000000	     -8.32041467	    -23.62677590	    -18.92296020	     72.63231335	    -11.80020840	      9.30477072	     60.32719688	     87.43133023	      0.00000000	      0.00000000	     89.95960022	      8.33119599	     33.80094993	     40.91794941	     66.38551664	      0.00000000	      0.00000000
      3.15000000	    -19.82965925	      3.75736407	      1.46066535	     -0.40241080	      0.77050836	     -0.78715530	     64.92216116	     -2.22883636	     -9.58589343	     76.05225310	      1.32736222	     20.93469772	      0.00000000	      0.00000000	     38.22023067	    -16.89234123	      6.29977358	     92.76695591	      1.61908882	    -17.83418935	      0.00000000	      0.00000000	     -8.35223611	    -23.58106853	    -18.96444006	     72.71652005	    -11.79434371	      9.36739479	     60.33417348	     87.40306601	      0.00000000	      0.00000000	     89.95959090	      8.28670963	     33.77867548	     41.08468381	     64.20943933	      0.00000000	      0.00000000
      3.15500000	    -19.79343897	      3.71212830	      1.46572723	     -0.40240553	      0.76972723	     -0.78713302	     64.95939698	     -2.19367798	     -9.60677160	     76.19754017	      1.32989796	     21.03851768	      0.00000000	      0.00000000	     38.15218711	    -16.96743308	      6.38405717	     92.79090475	      1.61950680	    -17.86075607	      0.00000000	      0.00000000	     -8.42691613	    -23.53164122	    -18.95390374	     72.74055658	    -11.85528996	      9.35443862	     60.32394460	     87.41814849	      0.00000000	      0.00000000	     89.95961016	      8.35660188	     33.71225186	     41.09061955	     62.86056214	      0.00000000	      0.00000000
